<svg xmlns="http://www.w3.org/2000/svg" viewBox="0 0 410 404"><path fill="#41D1FF" d="M399.6 58.3L227.4 388.8c-3.2 6.1-12 6.2-15.3.1L37.4 58.2c-3.6-6.5 2-14.2 9.2-13l172.4 30.5c1.2.2 2.4.2 3.6 0L394.7 45.3c7.2-1.3 12.8 6.4 9.2 13z"/><path fill="#FFDD35" d="M293.8 1.8L161.3 28.8c-1.5.3-2.7 1.5-2.9 3l-17.4 137.8c-.3 2.4 1.7 4.5 4.1 4.2l30-3.6c2.5-.3 4.7 1.8 4.3 4.4l-8.8 56.5c-.4 2.6 2 4.8 4.5 4.3l18.6-3.7c2.5-.5 4.8 1.7 4.5 4.3l-13.9 88.4c-.6 3.7 4.2 5.5 6.2 2.3l1.4-2.2 76.5-160.5c1.2-2.5-.8-5.4-3.5-5.1l-30.7 3.3c-2.6.3-4.7-2-4.1-4.6l23.4-104.1c.6-2.5-1.5-4.8-4.1-4.5z"/></svg>
